<?xml version="1.0" encoding="utf-8"?>
<!-- Generator: Adobe Illustrator 21.0.2, SVG Export Plug-In . SVG Version: 6.00 Build 0)  -->
<svg version="1.1" id="Capa_1" xmlns="http://www.w3.org/2000/svg" xmlns:xlink="http://www.w3.org/1999/xlink" x="0px" y="0px"
	 width="11.9px" height="22px" viewBox="0 0 11.9 22" style="enable-background:new 0 0 11.9 22;" xml:space="preserve">
<style type="text/css">
	.st0{fill:#FFFFFF;}
</style>
<g>
	<path class="st0" d="M11.4,0L8.6,0C5.4,0,3.3,2.1,3.3,5.4v2.5H0.4C0.2,7.9,0,8.1,0,8.4V12c0,0.2,0.2,0.4,0.4,0.4h2.9v9.1
		c0,0.2,0.2,0.4,0.4,0.4h3.7C7.8,22,8,21.8,8,21.6v-9.1h3.4c0.2,0,0.4-0.2,0.4-0.4l0-3.6c0-0.1,0-0.2-0.1-0.3s-0.2-0.1-0.3-0.1H8
		V5.8c0-1,0.2-1.5,1.6-1.5l1.9,0c0.2,0,0.4-0.2,0.4-0.4V0.5C11.9,0.2,11.7,0,11.4,0z"/>
</g>
</svg>
