<?xml version="1.0" encoding="utf-8"?>
<!-- Generator: Adobe Illustrator 21.0.2, SVG Export Plug-In . SVG Version: 6.00 Build 0)  -->
<svg version="1.1" id="Capa_1" xmlns="http://www.w3.org/2000/svg" xmlns:xlink="http://www.w3.org/1999/xlink" x="0px" y="0px"
	 width="22px" height="16.9px" viewBox="0 0 22 16.9" style="enable-background:new 0 0 22 16.9;" xml:space="preserve">
<style type="text/css">
	.st0{fill:#FFFFFF;}
</style>
<g>
	<g>
		<g>
			<path class="st0" d="M16.9,7.5H9v2.6h4.8c-0.7,2.3-2.8,3.9-5.4,3.9c-3.1,0-5.6-2.5-5.6-5.6c0-3.1,2.5-5.6,5.6-5.6
				c1.6,0,3,0.6,4,1.7l1.9-2.1C12.8,0.9,10.7,0,8.4,0C3.8,0,0,3.8,0,8.4s3.8,8.4,8.4,8.4c4.1,0,7.7-2.9,8.4-6.8L16.9,7.5L16.9,7.5
				L16.9,7.5z"/>
			<polygon class="st0" points="22,7.5 20.4,7.5 20.4,5.9 19,5.9 19,7.5 17.4,7.5 17.4,8.9 19,8.9 19,10.5 20.4,10.5 20.4,8.9 
				22,8.9 			"/>
		</g>
	</g>
</g>
</svg>
