<?xml version="1.0" encoding="utf-8"?>
<!-- Generator: Adobe Illustrator 21.0.2, SVG Export Plug-In . SVG Version: 6.00 Build 0)  -->
<svg version="1.1" id="Capa_1" xmlns="http://www.w3.org/2000/svg" xmlns:xlink="http://www.w3.org/1999/xlink" x="0px" y="0px"
	 width="15px" height="15px" viewBox="0 0 15 15" style="enable-background:new 0 0 15 15;" xml:space="preserve">
<style type="text/css">
	.st0{fill:#ED7E01;}
</style>
<path class="st0" d="M13.1,12.5c1.2-1.3,1.9-3.1,1.9-5c0-2-0.8-3.8-2-5.1v0c0,0,0,0,0,0C11.6,1,9.8,0.1,7.8,0l0,0L7.6,0
	c0,0-0.1,0-0.1,0S7.4,0,7.4,0L7.2,0l0,0C5.2,0.1,3.4,1,2,2.4c0,0,0,0,0,0c0,0,0,0,0,0C0.8,3.7,0,5.5,0,7.5c0,1.9,0.7,3.6,1.9,5
	c0,0,0,0,0,0c0,0,0,0,0,0C3.2,14,5.1,14.9,7.2,15l0,0l0.1,0c0,0,0.1,0,0.1,0s0.1,0,0.1,0l0.1,0l0,0C9.9,14.9,11.8,14,13.1,12.5
	C13.1,12.5,13.1,12.5,13.1,12.5C13.1,12.5,13.1,12.5,13.1,12.5z M0.5,7.8h3.1c0,1.1,0.2,2.2,0.6,3.2c-0.7,0.3-1.4,0.6-2.1,1.1
	C1.2,10.8,0.6,9.4,0.5,7.8z M2.3,2.9c0.6,0.4,1.3,0.8,2,1C3.9,4.9,3.7,6.1,3.6,7.2H0.5C0.6,5.6,1.2,4,2.3,2.9z M14.5,7.2h-3.1
	c0-1.2-0.3-2.3-0.7-3.4c0.7-0.3,1.4-0.6,2-1C13.8,4,14.4,5.6,14.5,7.2z M7.2,3.9c-0.7,0-1.5-0.1-2.2-0.3c0.5-1.1,1.3-2,2.2-2.9V3.9z
	 M7.2,4.4v2.9H4.1C4.2,6.1,4.4,5,4.8,4C5.6,4.2,6.4,4.4,7.2,4.4z M7.8,4.4c0.8,0,1.6-0.1,2.4-0.4c0.4,1,0.7,2.1,0.7,3.2H7.8V4.4z
	 M7.8,3.9V0.7c0.9,0.8,1.7,1.8,2.2,2.9C9.2,3.7,8.5,3.8,7.8,3.9z M10.5,3.4c-0.5-1-1.2-2-2-2.8c1.5,0.2,2.9,0.9,3.9,1.9
	C11.7,2.8,11.1,3.2,10.5,3.4z M4.5,3.4C3.9,3.2,3.3,2.8,2.7,2.5c1-1,2.4-1.7,3.9-1.9C5.7,1.4,5,2.3,4.5,3.4z M4.1,7.8h3.1v2.6
	c-0.9,0-1.7,0.2-2.5,0.4C4.4,9.8,4.2,8.8,4.1,7.8z M7.2,10.9v3.4c-1-0.9-1.8-1.9-2.3-3.1C5.7,11,6.5,10.9,7.2,10.9z M7.8,14.3v-3.4
	c0.8,0,1.6,0.1,2.3,0.4C9.5,12.4,8.8,13.5,7.8,14.3z M7.8,10.4V7.8h3.1c0,1-0.2,2-0.6,3C9.5,10.5,8.6,10.4,7.8,10.4z M11.4,7.8h3.1
	c-0.1,1.6-0.7,3.1-1.6,4.2c-0.7-0.4-1.4-0.8-2.1-1.1C11.1,9.9,11.3,8.9,11.4,7.8z M2.5,12.4c0.6-0.4,1.3-0.7,1.9-1
	c0.5,1.1,1.2,2.2,2.1,3C5,14.2,3.6,13.5,2.5,12.4z M8.4,14.4c0.9-0.9,1.6-1.9,2.1-3c0.7,0.2,1.3,0.6,1.9,1
	C11.4,13.5,10,14.2,8.4,14.4z"/>
</svg>
