<?xml version="1.0" encoding="utf-8"?>
<!-- Generator: Adobe Illustrator 21.0.2, SVG Export Plug-In . SVG Version: 6.00 Build 0)  -->
<svg version="1.1" id="Capa_1" xmlns="http://www.w3.org/2000/svg" xmlns:xlink="http://www.w3.org/1999/xlink" x="0px" y="0px"
	 width="19.8px" height="19.1px" viewBox="0 0 19.8 19.1" style="enable-background:new 0 0 19.8 19.1;" xml:space="preserve">
<style type="text/css">
	.st0{fill:#FFFFFF;}
</style>
<g>
	<g>
		<rect y="6.2" class="st0" width="4.3" height="12.9"/>
		<path class="st0" d="M18.4,7.4c-0.9-1-2.1-1.5-3.6-1.5c-0.5,0-1,0.1-1.5,0.2c-0.4,0.1-0.8,0.3-1.1,0.6c-0.3,0.2-0.6,0.5-0.7,0.7
			C11.3,7.6,11.1,7.8,11,8V6.2H6.7l0,0.6c0,0.4,0,1.7,0,3.9c0,2.2,0,5,0,8.4H11v-7.2c0-0.4,0-0.8,0.1-1.1c0.2-0.4,0.5-0.8,0.8-1.1
			c0.4-0.3,0.8-0.4,1.4-0.4c0.7,0,1.3,0.3,1.6,0.8c0.4,0.5,0.5,1.2,0.5,2.1v6.9h4.3v-7.4C19.8,9.8,19.3,8.4,18.4,7.4z"/>
		<path class="st0" d="M2.2,0C1.5,0,0.9,0.2,0.4,0.6C0,1.1-0.2,1.6-0.2,2.2c0,0.6,0.2,1.2,0.7,1.6c0.4,0.4,1,0.6,1.7,0.6h0
			c0.7,0,1.3-0.2,1.8-0.6c0.4-0.4,0.7-1,0.7-1.6c0-0.6-0.2-1.2-0.7-1.6C3.5,0.2,2.9,0,2.2,0z"/>
	</g>
</g>
</svg>
