<?xml version="1.0" encoding="utf-8"?>
<!-- Generator: Adobe Illustrator 21.0.2, SVG Export Plug-In . SVG Version: 6.00 Build 0)  -->
<svg version="1.1" id="Capa_1" xmlns="http://www.w3.org/2000/svg" xmlns:xlink="http://www.w3.org/1999/xlink" x="0px" y="0px"
	 width="15px" height="15px" viewBox="0 0 15 15" style="enable-background:new 0 0 15 15;" xml:space="preserve">
<style type="text/css">
	.st0{fill:#ED7E01;}
</style>
<g>
	<path class="st0" d="M11.8,0H3.2C1.4,0,0,1.4,0,3.2v8.5C0,13.6,1.4,15,3.2,15h8.5c1.8,0,3.2-1.4,3.2-3.2V3.2C15,1.4,13.6,0,11.8,0z
		 M12.1,11.2c-0.2,0.3-0.5,0.5-0.7,0.7c-0.3,0.4-0.8,0.5-1.2,0.5c-0.7,0-1.3-0.3-2-0.6C6.8,11.2,5.6,10.2,4.6,9
		C3.9,8.2,3.3,7.2,2.9,6.1C2.7,5.6,2.6,5.1,2.6,4.5c0-0.3,0.2-0.6,0.4-0.9c0.3-0.3,0.5-0.5,0.8-0.8c0.4-0.3,0.8-0.3,1.1,0
		C5.2,3,5.4,3.3,5.6,3.5C5.8,3.7,6,3.9,6.3,4.1c0.4,0.4,0.4,0.8,0,1.2C6,5.6,5.7,5.8,5.5,6.1c-0.1,0.1-0.1,0.1,0,0.2
		c0.2,0.4,0.4,0.8,0.7,1.2c0.6,0.7,1.2,1.3,2,1.8c0.2,0.1,0.4,0.2,0.5,0.3c0.1,0,0.2,0,0.2,0C9.2,9.3,9.4,9,9.7,8.7
		c0.4-0.4,0.8-0.4,1.1,0c0.4,0.4,0.9,0.9,1.3,1.3C12.5,10.4,12.5,10.8,12.1,11.2z"/>
</g>
</svg>
